<mxfile host="app.diagrams.net" modified="2023-04-25T12:33:00.652Z" agent="Mozilla/5.0 (Windows NT 10.0; Win64; x64) AppleWebKit/537.36 (KHTML, like Gecko) Chrome/112.0.0.0 Safari/537.36" etag="JocAx0vcgyQ9yiZlQIxP" version="21.2.1" type="github">
  <diagram name="第 1 页" id="EYi0_RaTzNXEal9ukB6m">
    <mxGraphModel dx="869" dy="1106" grid="0" gridSize="10" guides="1" tooltips="1" connect="1" arrows="1" fold="1" page="1" pageScale="1" pageWidth="827" pageHeight="1169" math="0" shadow="0">
      <root>
        <mxCell id="0" />
        <mxCell id="1" parent="0" />
        <mxCell id="-2CMCoGPqDw33968pkMs-3" value="" style="rounded=0;whiteSpace=wrap;html=1;labelBackgroundColor=none;fillColor=#09555B;strokeColor=#BAC8D3;fontColor=#EEEEEE;" vertex="1" parent="1">
          <mxGeometry x="29" y="210" width="770" height="580" as="geometry" />
        </mxCell>
        <mxCell id="-2CMCoGPqDw33968pkMs-4" value="" style="rounded=0;whiteSpace=wrap;html=1;fontSize=15;labelBackgroundColor=none;fillColor=#09555B;strokeColor=#BAC8D3;fontColor=#EEEEEE;" vertex="1" parent="1">
          <mxGeometry x="50" y="270" width="200" height="480" as="geometry" />
        </mxCell>
        <mxCell id="-2CMCoGPqDw33968pkMs-5" value="" style="rounded=0;whiteSpace=wrap;html=1;labelBackgroundColor=none;fillColor=#09555B;strokeColor=#BAC8D3;fontColor=#EEEEEE;" vertex="1" parent="1">
          <mxGeometry x="314" y="280" width="200" height="480" as="geometry" />
        </mxCell>
        <mxCell id="-2CMCoGPqDw33968pkMs-6" value="" style="rounded=0;whiteSpace=wrap;html=1;labelBackgroundColor=none;fillColor=#09555B;strokeColor=#BAC8D3;fontColor=#EEEEEE;" vertex="1" parent="1">
          <mxGeometry x="560" y="280" width="200" height="480" as="geometry" />
        </mxCell>
        <mxCell id="-2CMCoGPqDw33968pkMs-8" value="Node Type" style="shape=document;whiteSpace=wrap;html=1;boundedLbl=1;fontStyle=1;fontSize=16;labelBackgroundColor=none;rounded=0;fillColor=#09555B;strokeColor=#BAC8D3;fontColor=#EEEEEE;" vertex="1" parent="1">
          <mxGeometry x="50" y="240" width="120" height="80" as="geometry" />
        </mxCell>
        <mxCell id="-2CMCoGPqDw33968pkMs-10" value="Variables" style="shape=document;whiteSpace=wrap;html=1;boundedLbl=1;fontSize=16;fontStyle=1;labelBackgroundColor=none;rounded=0;fillColor=#09555B;strokeColor=#BAC8D3;fontColor=#EEEEEE;" vertex="1" parent="1">
          <mxGeometry x="560" y="240" width="120" height="80" as="geometry" />
        </mxCell>
        <mxCell id="-2CMCoGPqDw33968pkMs-11" value="ENTRYPOINT" style="rounded=0;whiteSpace=wrap;html=1;fontStyle=1;labelBackgroundColor=none;fillColor=#09555B;strokeColor=#BAC8D3;fontColor=#EEEEEE;" vertex="1" parent="1">
          <mxGeometry x="70" y="340" width="160" height="60" as="geometry" />
        </mxCell>
        <mxCell id="-2CMCoGPqDw33968pkMs-12" value="EXPRESSION" style="rounded=0;whiteSpace=wrap;html=1;fontStyle=1;labelBackgroundColor=none;fillColor=#09555B;strokeColor=#BAC8D3;fontColor=#EEEEEE;" vertex="1" parent="1">
          <mxGeometry x="70" y="420" width="160" height="60" as="geometry" />
        </mxCell>
        <mxCell id="-2CMCoGPqDw33968pkMs-13" value="IF" style="rounded=0;whiteSpace=wrap;html=1;fontStyle=1;labelBackgroundColor=none;fillColor=#09555B;strokeColor=#BAC8D3;fontColor=#EEEEEE;" vertex="1" parent="1">
          <mxGeometry x="70" y="500" width="160" height="60" as="geometry" />
        </mxCell>
        <mxCell id="-2CMCoGPqDw33968pkMs-14" value="RETURN" style="rounded=0;whiteSpace=wrap;html=1;fontStyle=1;fontSize=15;labelBackgroundColor=none;fillColor=#09555B;strokeColor=#BAC8D3;fontColor=#EEEEEE;" vertex="1" parent="1">
          <mxGeometry x="70" y="584.5" width="160" height="60" as="geometry" />
        </mxCell>
        <mxCell id="-2CMCoGPqDw33968pkMs-15" value="......" style="rounded=0;whiteSpace=wrap;html=1;fontStyle=1;fontSize=15;labelBackgroundColor=none;fillColor=#09555B;strokeColor=#BAC8D3;fontColor=#EEEEEE;" vertex="1" parent="1">
          <mxGeometry x="70" y="660" width="160" height="60" as="geometry" />
        </mxCell>
        <mxCell id="-2CMCoGPqDw33968pkMs-16" value="Assignment" style="rounded=0;whiteSpace=wrap;html=1;fontStyle=1;fontSize=15;labelBackgroundColor=none;fillColor=#09555B;strokeColor=#BAC8D3;fontColor=#EEEEEE;" vertex="1" parent="1">
          <mxGeometry x="334" y="340" width="160" height="60" as="geometry" />
        </mxCell>
        <mxCell id="-2CMCoGPqDw33968pkMs-17" value="BinaryOp" style="rounded=0;whiteSpace=wrap;html=1;fontStyle=1;fontSize=15;labelBackgroundColor=none;fillColor=#09555B;strokeColor=#BAC8D3;fontColor=#EEEEEE;" vertex="1" parent="1">
          <mxGeometry x="334" y="420" width="160" height="60" as="geometry" />
        </mxCell>
        <mxCell id="-2CMCoGPqDw33968pkMs-18" value="Call" style="rounded=0;whiteSpace=wrap;html=1;fontStyle=1;fontSize=15;labelBackgroundColor=none;fillColor=#09555B;strokeColor=#BAC8D3;fontColor=#EEEEEE;" vertex="1" parent="1">
          <mxGeometry x="334" y="500" width="160" height="60" as="geometry" />
        </mxCell>
        <mxCell id="-2CMCoGPqDw33968pkMs-19" value="Index" style="rounded=0;whiteSpace=wrap;html=1;fontStyle=1;fontSize=15;labelBackgroundColor=none;fillColor=#09555B;strokeColor=#BAC8D3;fontColor=#EEEEEE;" vertex="1" parent="1">
          <mxGeometry x="334" y="584.5" width="160" height="60" as="geometry" />
        </mxCell>
        <mxCell id="-2CMCoGPqDw33968pkMs-20" value="......" style="rounded=0;whiteSpace=wrap;html=1;fontStyle=1;fontSize=15;labelBackgroundColor=none;fillColor=#09555B;strokeColor=#BAC8D3;fontColor=#EEEEEE;" vertex="1" parent="1">
          <mxGeometry x="334" y="660" width="160" height="60" as="geometry" />
        </mxCell>
        <mxCell id="-2CMCoGPqDw33968pkMs-21" value="StateVariable" style="rounded=0;whiteSpace=wrap;html=1;fontSize=15;fontStyle=1;labelBackgroundColor=none;fillColor=#09555B;strokeColor=#BAC8D3;fontColor=#EEEEEE;" vertex="1" parent="1">
          <mxGeometry x="580" y="340" width="160" height="60" as="geometry" />
        </mxCell>
        <mxCell id="-2CMCoGPqDw33968pkMs-22" value="LocalVariable" style="rounded=0;whiteSpace=wrap;html=1;fontSize=15;fontStyle=1;labelBackgroundColor=none;fillColor=#09555B;strokeColor=#BAC8D3;fontColor=#EEEEEE;" vertex="1" parent="1">
          <mxGeometry x="580" y="420" width="160" height="60" as="geometry" />
        </mxCell>
        <mxCell id="-2CMCoGPqDw33968pkMs-23" value="TemporaryVariable" style="rounded=0;whiteSpace=wrap;html=1;fontSize=15;fontStyle=1;labelBackgroundColor=none;fillColor=#09555B;strokeColor=#BAC8D3;fontColor=#EEEEEE;" vertex="1" parent="1">
          <mxGeometry x="580" y="500" width="160" height="60" as="geometry" />
        </mxCell>
        <mxCell id="-2CMCoGPqDw33968pkMs-24" value="ReferenceVariable" style="rounded=0;whiteSpace=wrap;html=1;fontSize=15;fontStyle=1;labelBackgroundColor=none;fillColor=#09555B;strokeColor=#BAC8D3;fontColor=#EEEEEE;" vertex="1" parent="1">
          <mxGeometry x="580" y="584.5" width="160" height="60" as="geometry" />
        </mxCell>
        <mxCell id="-2CMCoGPqDw33968pkMs-25" value="......" style="rounded=0;whiteSpace=wrap;html=1;fontSize=15;fontStyle=1;labelBackgroundColor=none;fillColor=#09555B;strokeColor=#BAC8D3;fontColor=#EEEEEE;" vertex="1" parent="1">
          <mxGeometry x="580" y="660" width="160" height="60" as="geometry" />
        </mxCell>
        <mxCell id="-2CMCoGPqDw33968pkMs-26" value="ENTRYPOINT" style="rounded=0;whiteSpace=wrap;html=1;fontStyle=1;labelBackgroundColor=none;fillColor=#09555B;strokeColor=#BAC8D3;fontColor=#EEEEEE;" vertex="1" parent="1">
          <mxGeometry x="70" y="340" width="160" height="60" as="geometry" />
        </mxCell>
        <mxCell id="-2CMCoGPqDw33968pkMs-27" value="EXPRESSION" style="rounded=0;whiteSpace=wrap;html=1;fontStyle=1;labelBackgroundColor=none;fillColor=#09555B;strokeColor=#BAC8D3;fontColor=#EEEEEE;" vertex="1" parent="1">
          <mxGeometry x="70" y="420" width="160" height="60" as="geometry" />
        </mxCell>
        <mxCell id="-2CMCoGPqDw33968pkMs-28" value="IF" style="rounded=0;whiteSpace=wrap;html=1;fontStyle=1;labelBackgroundColor=none;fillColor=#09555B;strokeColor=#BAC8D3;fontColor=#EEEEEE;" vertex="1" parent="1">
          <mxGeometry x="70" y="500" width="160" height="60" as="geometry" />
        </mxCell>
        <mxCell id="-2CMCoGPqDw33968pkMs-29" value="ENTRYPOINT" style="rounded=0;whiteSpace=wrap;html=1;fontStyle=1;labelBackgroundColor=none;fillColor=#09555B;strokeColor=#BAC8D3;fontColor=#EEEEEE;" vertex="1" parent="1">
          <mxGeometry x="70" y="340" width="160" height="60" as="geometry" />
        </mxCell>
        <mxCell id="-2CMCoGPqDw33968pkMs-30" value="EXPRESSION" style="rounded=0;whiteSpace=wrap;html=1;fontStyle=1;labelBackgroundColor=none;fillColor=#09555B;strokeColor=#BAC8D3;fontColor=#EEEEEE;" vertex="1" parent="1">
          <mxGeometry x="70" y="420" width="160" height="60" as="geometry" />
        </mxCell>
        <mxCell id="-2CMCoGPqDw33968pkMs-31" value="IF" style="rounded=0;whiteSpace=wrap;html=1;fontStyle=1;labelBackgroundColor=none;fillColor=#09555B;strokeColor=#BAC8D3;fontColor=#EEEEEE;" vertex="1" parent="1">
          <mxGeometry x="70" y="500" width="160" height="60" as="geometry" />
        </mxCell>
        <mxCell id="-2CMCoGPqDw33968pkMs-32" value="ENTRYPOINT" style="rounded=0;whiteSpace=wrap;html=1;fontStyle=1;labelBackgroundColor=none;fillColor=#09555B;strokeColor=#BAC8D3;fontColor=#EEEEEE;" vertex="1" parent="1">
          <mxGeometry x="70" y="340" width="160" height="60" as="geometry" />
        </mxCell>
        <mxCell id="-2CMCoGPqDw33968pkMs-33" value="EXPRESSION" style="rounded=0;whiteSpace=wrap;html=1;fontStyle=1;labelBackgroundColor=none;fillColor=#09555B;strokeColor=#BAC8D3;fontColor=#EEEEEE;" vertex="1" parent="1">
          <mxGeometry x="70" y="420" width="160" height="60" as="geometry" />
        </mxCell>
        <mxCell id="-2CMCoGPqDw33968pkMs-34" value="IF" style="rounded=0;whiteSpace=wrap;html=1;fontStyle=1;labelBackgroundColor=none;fillColor=#09555B;strokeColor=#BAC8D3;fontColor=#EEEEEE;" vertex="1" parent="1">
          <mxGeometry x="70" y="500" width="160" height="60" as="geometry" />
        </mxCell>
        <mxCell id="-2CMCoGPqDw33968pkMs-35" value="ENTRYPOINT" style="rounded=0;whiteSpace=wrap;html=1;fontStyle=1;fontSize=15;labelBackgroundColor=none;fillColor=#09555B;strokeColor=#BAC8D3;fontColor=#EEEEEE;" vertex="1" parent="1">
          <mxGeometry x="70" y="340" width="160" height="60" as="geometry" />
        </mxCell>
        <mxCell id="-2CMCoGPqDw33968pkMs-36" value="EXPRESSION" style="rounded=0;whiteSpace=wrap;html=1;fontStyle=1;fontSize=15;labelBackgroundColor=none;fillColor=#09555B;strokeColor=#BAC8D3;fontColor=#EEEEEE;" vertex="1" parent="1">
          <mxGeometry x="70" y="420" width="160" height="60" as="geometry" />
        </mxCell>
        <mxCell id="-2CMCoGPqDw33968pkMs-37" value="IF" style="rounded=0;whiteSpace=wrap;html=1;fontStyle=1;fontSize=15;labelBackgroundColor=none;fillColor=#09555B;strokeColor=#BAC8D3;fontColor=#EEEEEE;" vertex="1" parent="1">
          <mxGeometry x="70" y="500" width="160" height="60" as="geometry" />
        </mxCell>
        <mxCell id="-2CMCoGPqDw33968pkMs-40" value="Operations" style="shape=document;whiteSpace=wrap;html=1;boundedLbl=1;fontSize=16;fontStyle=1;labelBackgroundColor=none;rounded=0;fillColor=#09555B;strokeColor=#BAC8D3;fontColor=#EEEEEE;" vertex="1" parent="1">
          <mxGeometry x="314" y="240" width="120" height="80" as="geometry" />
        </mxCell>
      </root>
    </mxGraphModel>
  </diagram>
</mxfile>
